<mxfile host="app.diagrams.net" modified="2023-06-14T04:06:09.609Z" agent="Mozilla/5.0 (Windows NT 10.0; Win64; x64) AppleWebKit/537.36 (KHTML, like Gecko) Chrome/113.0.0.0 Safari/537.36" etag="qwRu0J07C-Cy93HnYOGX" version="21.3.8" type="github">
  <diagram name="Page-1" id="deiKwOPjDkKqvRi5309D">
    <mxGraphModel dx="1035" dy="1602" grid="1" gridSize="10" guides="1" tooltips="1" connect="1" arrows="1" fold="1" page="1" pageScale="1" pageWidth="850" pageHeight="1100" math="0" shadow="0">
      <root>
        <mxCell id="0" />
        <mxCell id="1" parent="0" />
        <mxCell id="OI6TuoTH3LYQ655Bs1VF-2" value="" style="whiteSpace=wrap;html=1;aspect=fixed;" parent="1" vertex="1">
          <mxGeometry x="110" y="60" width="240" height="240" as="geometry" />
        </mxCell>
        <mxCell id="OI6TuoTH3LYQ655Bs1VF-4" value="Product_Category" style="text;html=1;align=center;verticalAlign=middle;resizable=0;points=[];autosize=1;strokeColor=none;fillColor=none;" parent="1" vertex="1">
          <mxGeometry x="100" y="28" width="120" height="30" as="geometry" />
        </mxCell>
        <mxCell id="OI6TuoTH3LYQ655Bs1VF-6" value="Category_Id" style="text;html=1;strokeColor=none;fillColor=none;align=center;verticalAlign=middle;whiteSpace=wrap;rounded=0;" parent="1" vertex="1">
          <mxGeometry x="120" y="70" width="210" height="30" as="geometry" />
        </mxCell>
        <mxCell id="OI6TuoTH3LYQ655Bs1VF-7" value="List&amp;lt;Product&amp;gt;" style="text;html=1;strokeColor=none;fillColor=none;align=center;verticalAlign=middle;whiteSpace=wrap;rounded=0;" parent="1" vertex="1">
          <mxGeometry x="125" y="130" width="210" height="30" as="geometry" />
        </mxCell>
        <mxCell id="OI6TuoTH3LYQ655Bs1VF-8" value="Category Name" style="text;html=1;strokeColor=none;fillColor=none;align=center;verticalAlign=middle;whiteSpace=wrap;rounded=0;" parent="1" vertex="1">
          <mxGeometry x="125" y="100" width="210" height="30" as="geometry" />
        </mxCell>
        <mxCell id="OI6TuoTH3LYQ655Bs1VF-11" value="" style="whiteSpace=wrap;html=1;aspect=fixed;" parent="1" vertex="1">
          <mxGeometry x="450" y="60" width="240" height="240" as="geometry" />
        </mxCell>
        <mxCell id="OI6TuoTH3LYQ655Bs1VF-12" value="Product" style="text;html=1;strokeColor=none;fillColor=none;align=center;verticalAlign=middle;whiteSpace=wrap;rounded=0;" parent="1" vertex="1">
          <mxGeometry x="470" y="28" width="60" height="30" as="geometry" />
        </mxCell>
        <mxCell id="OI6TuoTH3LYQ655Bs1VF-13" value="product_Id" style="text;html=1;strokeColor=none;fillColor=none;align=center;verticalAlign=middle;whiteSpace=wrap;rounded=0;" parent="1" vertex="1">
          <mxGeometry x="480" y="65" width="170" height="40" as="geometry" />
        </mxCell>
        <mxCell id="OI6TuoTH3LYQ655Bs1VF-14" value="product Name" style="text;html=1;strokeColor=none;fillColor=none;align=center;verticalAlign=middle;whiteSpace=wrap;rounded=0;" parent="1" vertex="1">
          <mxGeometry x="480" y="105" width="170" height="40" as="geometry" />
        </mxCell>
        <mxCell id="OI6TuoTH3LYQ655Bs1VF-15" value="product price" style="text;html=1;strokeColor=none;fillColor=none;align=center;verticalAlign=middle;whiteSpace=wrap;rounded=0;" parent="1" vertex="1">
          <mxGeometry x="485" y="160" width="170" height="40" as="geometry" />
        </mxCell>
        <mxCell id="OI6TuoTH3LYQ655Bs1VF-17" style="edgeStyle=orthogonalEdgeStyle;rounded=0;orthogonalLoop=1;jettySize=auto;html=1;exitX=0.5;exitY=1;exitDx=0;exitDy=0;" parent="1" source="OI6TuoTH3LYQ655Bs1VF-2" target="OI6TuoTH3LYQ655Bs1VF-2" edge="1">
          <mxGeometry relative="1" as="geometry" />
        </mxCell>
        <mxCell id="OI6TuoTH3LYQ655Bs1VF-18" value="" style="endArrow=classic;html=1;rounded=0;exitX=1.004;exitY=0.442;exitDx=0;exitDy=0;exitPerimeter=0;" parent="1" source="OI6TuoTH3LYQ655Bs1VF-2" edge="1">
          <mxGeometry width="50" height="50" relative="1" as="geometry">
            <mxPoint x="400" y="280" as="sourcePoint" />
            <mxPoint x="440" y="166" as="targetPoint" />
          </mxGeometry>
        </mxCell>
        <mxCell id="OI6TuoTH3LYQ655Bs1VF-19" value="" style="endArrow=classic;html=1;rounded=0;exitX=1.004;exitY=0.442;exitDx=0;exitDy=0;exitPerimeter=0;" parent="1" target="OI6TuoTH3LYQ655Bs1VF-20" edge="1">
          <mxGeometry width="50" height="50" relative="1" as="geometry">
            <mxPoint x="230" y="20" as="sourcePoint" />
            <mxPoint x="319" y="20" as="targetPoint" />
            <Array as="points">
              <mxPoint x="279" y="20" />
            </Array>
          </mxGeometry>
        </mxCell>
        <mxCell id="OI6TuoTH3LYQ655Bs1VF-20" value="Has-a&amp;nbsp;" style="text;html=1;strokeColor=none;fillColor=none;align=center;verticalAlign=middle;whiteSpace=wrap;rounded=0;" parent="1" vertex="1">
          <mxGeometry x="220" y="-10" width="60" height="30" as="geometry" />
        </mxCell>
        <mxCell id="OI6TuoTH3LYQ655Bs1VF-21" value="methods:---&lt;br&gt;// add product category&lt;br&gt;//remove product category" style="whiteSpace=wrap;html=1;aspect=fixed;" parent="1" vertex="1">
          <mxGeometry x="120" y="340" width="180" height="180" as="geometry" />
        </mxCell>
        <mxCell id="OI6TuoTH3LYQ655Bs1VF-22" value="Inventory" style="text;html=1;strokeColor=none;fillColor=none;align=center;verticalAlign=middle;whiteSpace=wrap;rounded=0;" parent="1" vertex="1">
          <mxGeometry x="120" y="310" width="60" height="30" as="geometry" />
        </mxCell>
        <mxCell id="OI6TuoTH3LYQ655Bs1VF-23" value="List&amp;lt;Product Categoruy&amp;gt;" style="text;html=1;strokeColor=none;fillColor=none;align=center;verticalAlign=middle;whiteSpace=wrap;rounded=0;" parent="1" vertex="1">
          <mxGeometry x="140" y="350" width="150" height="30" as="geometry" />
        </mxCell>
        <mxCell id="OI6TuoTH3LYQ655Bs1VF-24" value="" style="endArrow=classic;html=1;rounded=0;" parent="1" edge="1">
          <mxGeometry width="50" height="50" relative="1" as="geometry">
            <mxPoint x="200" y="340" as="sourcePoint" />
            <mxPoint x="200" y="310" as="targetPoint" />
          </mxGeometry>
        </mxCell>
        <mxCell id="OI6TuoTH3LYQ655Bs1VF-25" value="methods:---&lt;br&gt;// add item to inventory&lt;br&gt;//remove item from inventory" style="whiteSpace=wrap;html=1;aspect=fixed;" parent="1" vertex="1">
          <mxGeometry x="120" y="570" width="180" height="180" as="geometry" />
        </mxCell>
        <mxCell id="OI6TuoTH3LYQ655Bs1VF-27" value="" style="endArrow=classic;html=1;rounded=0;exitX=0.5;exitY=0;exitDx=0;exitDy=0;entryX=0.5;entryY=1;entryDx=0;entryDy=0;" parent="1" source="OI6TuoTH3LYQ655Bs1VF-25" target="OI6TuoTH3LYQ655Bs1VF-21" edge="1">
          <mxGeometry width="50" height="50" relative="1" as="geometry">
            <mxPoint x="210" y="350" as="sourcePoint" />
            <mxPoint x="410" y="450" as="targetPoint" />
          </mxGeometry>
        </mxCell>
        <mxCell id="OI6TuoTH3LYQ655Bs1VF-28" value="WareHouse" style="text;html=1;strokeColor=none;fillColor=none;align=center;verticalAlign=middle;whiteSpace=wrap;rounded=0;" parent="1" vertex="1">
          <mxGeometry x="100" y="540" width="100" height="30" as="geometry" />
        </mxCell>
        <mxCell id="OI6TuoTH3LYQ655Bs1VF-29" value="Inventory inventory;" style="text;html=1;strokeColor=none;fillColor=none;align=center;verticalAlign=middle;whiteSpace=wrap;rounded=0;" parent="1" vertex="1">
          <mxGeometry x="140" y="580" width="150" height="30" as="geometry" />
        </mxCell>
        <mxCell id="OI6TuoTH3LYQ655Bs1VF-30" value="Address address;" style="text;html=1;strokeColor=none;fillColor=none;align=center;verticalAlign=middle;whiteSpace=wrap;rounded=0;" parent="1" vertex="1">
          <mxGeometry x="160" y="600" width="120" height="30" as="geometry" />
        </mxCell>
        <mxCell id="OI6TuoTH3LYQ655Bs1VF-31" value="" style="whiteSpace=wrap;html=1;aspect=fixed;" parent="1" vertex="1">
          <mxGeometry x="120" y="800" width="180" height="180" as="geometry" />
        </mxCell>
        <mxCell id="OI6TuoTH3LYQ655Bs1VF-32" value="Adress" style="text;html=1;strokeColor=none;fillColor=none;align=center;verticalAlign=middle;whiteSpace=wrap;rounded=0;" parent="1" vertex="1">
          <mxGeometry x="120" y="770" width="60" height="30" as="geometry" />
        </mxCell>
        <mxCell id="OI6TuoTH3LYQ655Bs1VF-33" value="" style="endArrow=classic;html=1;rounded=0;exitX=0.5;exitY=1;exitDx=0;exitDy=0;entryX=0.5;entryY=0;entryDx=0;entryDy=0;" parent="1" source="OI6TuoTH3LYQ655Bs1VF-25" target="OI6TuoTH3LYQ655Bs1VF-31" edge="1">
          <mxGeometry width="50" height="50" relative="1" as="geometry">
            <mxPoint x="400" y="980" as="sourcePoint" />
            <mxPoint x="450" y="930" as="targetPoint" />
          </mxGeometry>
        </mxCell>
        <mxCell id="OI6TuoTH3LYQ655Bs1VF-34" value="String address;" style="text;html=1;strokeColor=none;fillColor=none;align=center;verticalAlign=middle;whiteSpace=wrap;rounded=0;" parent="1" vertex="1">
          <mxGeometry x="140" y="800" width="150" height="30" as="geometry" />
        </mxCell>
        <mxCell id="OI6TuoTH3LYQ655Bs1VF-35" value="int pincode;" style="text;html=1;strokeColor=none;fillColor=none;align=center;verticalAlign=middle;whiteSpace=wrap;rounded=0;" parent="1" vertex="1">
          <mxGeometry x="130" y="830" width="150" height="30" as="geometry" />
        </mxCell>
        <mxCell id="OI6TuoTH3LYQ655Bs1VF-36" value="String city;" style="text;html=1;strokeColor=none;fillColor=none;align=center;verticalAlign=middle;whiteSpace=wrap;rounded=0;" parent="1" vertex="1">
          <mxGeometry x="140" y="875" width="150" height="30" as="geometry" />
        </mxCell>
        <mxCell id="OI6TuoTH3LYQ655Bs1VF-37" value="String State;" style="text;html=1;strokeColor=none;fillColor=none;align=center;verticalAlign=middle;whiteSpace=wrap;rounded=0;" parent="1" vertex="1">
          <mxGeometry x="135" y="920" width="150" height="30" as="geometry" />
        </mxCell>
        <mxCell id="OI6TuoTH3LYQ655Bs1VF-38" value="" style="whiteSpace=wrap;html=1;aspect=fixed;" parent="1" vertex="1">
          <mxGeometry x="390" y="570" width="180" height="180" as="geometry" />
        </mxCell>
        <mxCell id="OI6TuoTH3LYQ655Bs1VF-39" value="Warehouse Controller" style="text;html=1;strokeColor=none;fillColor=none;align=center;verticalAlign=middle;whiteSpace=wrap;rounded=0;" parent="1" vertex="1">
          <mxGeometry x="360" y="540" width="180" height="30" as="geometry" />
        </mxCell>
        <mxCell id="OI6TuoTH3LYQ655Bs1VF-40" value="WareHouse Selection Strategy" style="text;html=1;strokeColor=none;fillColor=none;align=center;verticalAlign=middle;whiteSpace=wrap;rounded=0;" parent="1" vertex="1">
          <mxGeometry x="395" y="640" width="170" height="30" as="geometry" />
        </mxCell>
        <mxCell id="OI6TuoTH3LYQ655Bs1VF-41" value="List&amp;lt;WareHouse&amp;gt;" style="text;html=1;strokeColor=none;fillColor=none;align=center;verticalAlign=middle;whiteSpace=wrap;rounded=0;" parent="1" vertex="1">
          <mxGeometry x="400" y="590" width="150" height="30" as="geometry" />
        </mxCell>
        <mxCell id="OI6TuoTH3LYQ655Bs1VF-42" value="// methods:--&lt;br&gt;Add wareHouse&lt;br&gt;Remove WareHouse" style="text;html=1;strokeColor=none;fillColor=none;align=center;verticalAlign=middle;whiteSpace=wrap;rounded=0;" parent="1" vertex="1">
          <mxGeometry x="395" y="700" width="160" height="30" as="geometry" />
        </mxCell>
        <mxCell id="OI6TuoTH3LYQ655Bs1VF-44" value="" style="endArrow=classic;html=1;rounded=0;entryX=1.006;entryY=0.456;entryDx=0;entryDy=0;entryPerimeter=0;exitX=0;exitY=0.25;exitDx=0;exitDy=0;" parent="1" source="OI6TuoTH3LYQ655Bs1VF-38" target="OI6TuoTH3LYQ655Bs1VF-25" edge="1">
          <mxGeometry width="50" height="50" relative="1" as="geometry">
            <mxPoint x="400" y="800" as="sourcePoint" />
            <mxPoint x="450" y="750" as="targetPoint" />
          </mxGeometry>
        </mxCell>
        <mxCell id="OI6TuoTH3LYQ655Bs1VF-45" value="WareHose selectWH();" style="whiteSpace=wrap;html=1;aspect=fixed;" parent="1" vertex="1">
          <mxGeometry x="395" y="810" width="130" height="130" as="geometry" />
        </mxCell>
        <mxCell id="OI6TuoTH3LYQ655Bs1VF-46" value="Ware House Selection" style="text;html=1;strokeColor=none;fillColor=none;align=center;verticalAlign=middle;whiteSpace=wrap;rounded=0;" parent="1" vertex="1">
          <mxGeometry x="390" y="790" width="130" height="30" as="geometry" />
        </mxCell>
        <mxCell id="OI6TuoTH3LYQ655Bs1VF-47" value="" style="shape=flexArrow;endArrow=classic;html=1;rounded=0;width=9;endSize=17.09;exitX=0.4;exitY=1.031;exitDx=0;exitDy=0;exitPerimeter=0;" parent="1" source="OI6TuoTH3LYQ655Bs1VF-45" edge="1">
          <mxGeometry width="50" height="50" relative="1" as="geometry">
            <mxPoint x="410" y="890" as="sourcePoint" />
            <mxPoint x="390" y="1070" as="targetPoint" />
            <Array as="points">
              <mxPoint x="410" y="1010" />
            </Array>
          </mxGeometry>
        </mxCell>
        <mxCell id="OI6TuoTH3LYQ655Bs1VF-48" value="" style="shape=flexArrow;endArrow=classic;html=1;rounded=0;width=9;endSize=17.09;exitX=0.4;exitY=1.031;exitDx=0;exitDy=0;exitPerimeter=0;" parent="1" edge="1">
          <mxGeometry width="50" height="50" relative="1" as="geometry">
            <mxPoint x="470" y="950" as="sourcePoint" />
            <mxPoint x="510" y="1060" as="targetPoint" />
            <Array as="points" />
          </mxGeometry>
        </mxCell>
        <mxCell id="OI6TuoTH3LYQ655Bs1VF-49" value="nearest WH&amp;nbsp;&lt;br&gt;{&lt;br&gt;WareHose select wh()&lt;br&gt;{&lt;br&gt;}&lt;br&gt;}" style="rounded=0;whiteSpace=wrap;html=1;" parent="1" vertex="1">
          <mxGeometry x="280" y="1080" width="120" height="60" as="geometry" />
        </mxCell>
        <mxCell id="OI6TuoTH3LYQ655Bs1VF-51" value="&lt;br&gt;&lt;span style=&quot;color: rgb(0, 0, 0); font-family: Helvetica; font-size: 12px; font-style: normal; font-variant-ligatures: normal; font-variant-caps: normal; font-weight: 400; letter-spacing: normal; orphans: 2; text-align: center; text-indent: 0px; text-transform: none; widows: 2; word-spacing: 0px; -webkit-text-stroke-width: 0px; background-color: rgb(251, 251, 251); text-decoration-thickness: initial; text-decoration-style: initial; text-decoration-color: initial; float: none; display: inline !important;&quot;&gt;cheapest WH&amp;nbsp;&lt;/span&gt;&lt;br style=&quot;border-color: var(--border-color); color: rgb(0, 0, 0); font-family: Helvetica; font-size: 12px; font-style: normal; font-variant-ligatures: normal; font-variant-caps: normal; font-weight: 400; letter-spacing: normal; orphans: 2; text-align: center; text-indent: 0px; text-transform: none; widows: 2; word-spacing: 0px; -webkit-text-stroke-width: 0px; background-color: rgb(251, 251, 251); text-decoration-thickness: initial; text-decoration-style: initial; text-decoration-color: initial;&quot;&gt;&lt;span style=&quot;color: rgb(0, 0, 0); font-family: Helvetica; font-size: 12px; font-style: normal; font-variant-ligatures: normal; font-variant-caps: normal; font-weight: 400; letter-spacing: normal; orphans: 2; text-align: center; text-indent: 0px; text-transform: none; widows: 2; word-spacing: 0px; -webkit-text-stroke-width: 0px; background-color: rgb(251, 251, 251); text-decoration-thickness: initial; text-decoration-style: initial; text-decoration-color: initial; float: none; display: inline !important;&quot;&gt;{&lt;/span&gt;&lt;br style=&quot;border-color: var(--border-color); color: rgb(0, 0, 0); font-family: Helvetica; font-size: 12px; font-style: normal; font-variant-ligatures: normal; font-variant-caps: normal; font-weight: 400; letter-spacing: normal; orphans: 2; text-align: center; text-indent: 0px; text-transform: none; widows: 2; word-spacing: 0px; -webkit-text-stroke-width: 0px; background-color: rgb(251, 251, 251); text-decoration-thickness: initial; text-decoration-style: initial; text-decoration-color: initial;&quot;&gt;&lt;span style=&quot;color: rgb(0, 0, 0); font-family: Helvetica; font-size: 12px; font-style: normal; font-variant-ligatures: normal; font-variant-caps: normal; font-weight: 400; letter-spacing: normal; orphans: 2; text-align: center; text-indent: 0px; text-transform: none; widows: 2; word-spacing: 0px; -webkit-text-stroke-width: 0px; background-color: rgb(251, 251, 251); text-decoration-thickness: initial; text-decoration-style: initial; text-decoration-color: initial; float: none; display: inline !important;&quot;&gt;WareHose select wh()&lt;/span&gt;&lt;br style=&quot;border-color: var(--border-color); color: rgb(0, 0, 0); font-family: Helvetica; font-size: 12px; font-style: normal; font-variant-ligatures: normal; font-variant-caps: normal; font-weight: 400; letter-spacing: normal; orphans: 2; text-align: center; text-indent: 0px; text-transform: none; widows: 2; word-spacing: 0px; -webkit-text-stroke-width: 0px; background-color: rgb(251, 251, 251); text-decoration-thickness: initial; text-decoration-style: initial; text-decoration-color: initial;&quot;&gt;&lt;span style=&quot;color: rgb(0, 0, 0); font-family: Helvetica; font-size: 12px; font-style: normal; font-variant-ligatures: normal; font-variant-caps: normal; font-weight: 400; letter-spacing: normal; orphans: 2; text-align: center; text-indent: 0px; text-transform: none; widows: 2; word-spacing: 0px; -webkit-text-stroke-width: 0px; background-color: rgb(251, 251, 251); text-decoration-thickness: initial; text-decoration-style: initial; text-decoration-color: initial; float: none; display: inline !important;&quot;&gt;{&lt;/span&gt;&lt;br style=&quot;border-color: var(--border-color); color: rgb(0, 0, 0); font-family: Helvetica; font-size: 12px; font-style: normal; font-variant-ligatures: normal; font-variant-caps: normal; font-weight: 400; letter-spacing: normal; orphans: 2; text-align: center; text-indent: 0px; text-transform: none; widows: 2; word-spacing: 0px; -webkit-text-stroke-width: 0px; background-color: rgb(251, 251, 251); text-decoration-thickness: initial; text-decoration-style: initial; text-decoration-color: initial;&quot;&gt;&lt;span style=&quot;color: rgb(0, 0, 0); font-family: Helvetica; font-size: 12px; font-style: normal; font-variant-ligatures: normal; font-variant-caps: normal; font-weight: 400; letter-spacing: normal; orphans: 2; text-align: center; text-indent: 0px; text-transform: none; widows: 2; word-spacing: 0px; -webkit-text-stroke-width: 0px; background-color: rgb(251, 251, 251); text-decoration-thickness: initial; text-decoration-style: initial; text-decoration-color: initial; float: none; display: inline !important;&quot;&gt;}&lt;/span&gt;&lt;br style=&quot;border-color: var(--border-color); color: rgb(0, 0, 0); font-family: Helvetica; font-size: 12px; font-style: normal; font-variant-ligatures: normal; font-variant-caps: normal; font-weight: 400; letter-spacing: normal; orphans: 2; text-align: center; text-indent: 0px; text-transform: none; widows: 2; word-spacing: 0px; -webkit-text-stroke-width: 0px; background-color: rgb(251, 251, 251); text-decoration-thickness: initial; text-decoration-style: initial; text-decoration-color: initial;&quot;&gt;&lt;span style=&quot;color: rgb(0, 0, 0); font-family: Helvetica; font-size: 12px; font-style: normal; font-variant-ligatures: normal; font-variant-caps: normal; font-weight: 400; letter-spacing: normal; orphans: 2; text-align: center; text-indent: 0px; text-transform: none; widows: 2; word-spacing: 0px; -webkit-text-stroke-width: 0px; background-color: rgb(251, 251, 251); text-decoration-thickness: initial; text-decoration-style: initial; text-decoration-color: initial; float: none; display: inline !important;&quot;&gt;}&lt;/span&gt;&lt;br&gt;" style="rounded=0;whiteSpace=wrap;html=1;" parent="1" vertex="1">
          <mxGeometry x="470" y="1070" width="120" height="60" as="geometry" />
        </mxCell>
        <mxCell id="OI6TuoTH3LYQ655Bs1VF-52" value="" style="endArrow=classic;html=1;rounded=0;exitX=0.311;exitY=1.022;exitDx=0;exitDy=0;exitPerimeter=0;" parent="1" source="OI6TuoTH3LYQ655Bs1VF-38" edge="1">
          <mxGeometry width="50" height="50" relative="1" as="geometry">
            <mxPoint x="400" y="840" as="sourcePoint" />
            <mxPoint x="450" y="790" as="targetPoint" />
          </mxGeometry>
        </mxCell>
        <mxCell id="OI6TuoTH3LYQ655Bs1VF-53" style="edgeStyle=orthogonalEdgeStyle;rounded=0;orthogonalLoop=1;jettySize=auto;html=1;exitX=0.5;exitY=1;exitDx=0;exitDy=0;" parent="1" source="OI6TuoTH3LYQ655Bs1VF-11" target="OI6TuoTH3LYQ655Bs1VF-11" edge="1">
          <mxGeometry relative="1" as="geometry" />
        </mxCell>
        <mxCell id="TSHtxzfvW_aCyL66SPKD-1" value="" style="whiteSpace=wrap;html=1;aspect=fixed;" vertex="1" parent="1">
          <mxGeometry x="680" y="370" width="260" height="260" as="geometry" />
        </mxCell>
        <mxCell id="TSHtxzfvW_aCyL66SPKD-2" value="user_id" style="text;html=1;strokeColor=none;fillColor=none;align=center;verticalAlign=middle;whiteSpace=wrap;rounded=0;" vertex="1" parent="1">
          <mxGeometry x="690" y="380" width="240" height="30" as="geometry" />
        </mxCell>
        <mxCell id="TSHtxzfvW_aCyL66SPKD-3" value="user Name" style="text;html=1;strokeColor=none;fillColor=none;align=center;verticalAlign=middle;whiteSpace=wrap;rounded=0;" vertex="1" parent="1">
          <mxGeometry x="690" y="420" width="240" height="30" as="geometry" />
        </mxCell>
        <mxCell id="TSHtxzfvW_aCyL66SPKD-4" value="User address" style="text;html=1;strokeColor=none;fillColor=none;align=center;verticalAlign=middle;whiteSpace=wrap;rounded=0;" vertex="1" parent="1">
          <mxGeometry x="690" y="460" width="240" height="30" as="geometry" />
        </mxCell>
        <mxCell id="TSHtxzfvW_aCyL66SPKD-5" value="Cart" style="text;html=1;strokeColor=none;fillColor=none;align=center;verticalAlign=middle;whiteSpace=wrap;rounded=0;" vertex="1" parent="1">
          <mxGeometry x="690" y="490" width="240" height="30" as="geometry" />
        </mxCell>
        <mxCell id="TSHtxzfvW_aCyL66SPKD-10" value="USER" style="text;html=1;strokeColor=none;fillColor=none;align=center;verticalAlign=middle;whiteSpace=wrap;rounded=0;" vertex="1" parent="1">
          <mxGeometry x="680" y="340" width="150" height="30" as="geometry" />
        </mxCell>
        <mxCell id="TSHtxzfvW_aCyL66SPKD-12" value="" style="whiteSpace=wrap;html=1;aspect=fixed;" vertex="1" parent="1">
          <mxGeometry x="1010" y="320" width="200" height="200" as="geometry" />
        </mxCell>
        <mxCell id="TSHtxzfvW_aCyL66SPKD-14" value="Cart_id" style="text;html=1;strokeColor=none;fillColor=none;align=center;verticalAlign=middle;whiteSpace=wrap;rounded=0;" vertex="1" parent="1">
          <mxGeometry x="1000" y="390" width="220" height="30" as="geometry" />
        </mxCell>
        <mxCell id="TSHtxzfvW_aCyL66SPKD-15" value="Map&amp;lt;product id, count&amp;gt;" style="text;html=1;strokeColor=none;fillColor=none;align=center;verticalAlign=middle;whiteSpace=wrap;rounded=0;" vertex="1" parent="1">
          <mxGeometry x="1000" y="420" width="220" height="30" as="geometry" />
        </mxCell>
        <mxCell id="TSHtxzfvW_aCyL66SPKD-16" value="" style="endArrow=classic;html=1;rounded=0;entryX=-0.004;entryY=0.62;entryDx=0;entryDy=0;entryPerimeter=0;exitX=1;exitY=0.5;exitDx=0;exitDy=0;" edge="1" parent="1" source="TSHtxzfvW_aCyL66SPKD-1" target="TSHtxzfvW_aCyL66SPKD-12">
          <mxGeometry width="50" height="50" relative="1" as="geometry">
            <mxPoint x="850" y="450" as="sourcePoint" />
            <mxPoint x="900" y="400" as="targetPoint" />
          </mxGeometry>
        </mxCell>
        <mxCell id="TSHtxzfvW_aCyL66SPKD-17" value="Cart" style="text;html=1;strokeColor=none;fillColor=none;align=center;verticalAlign=middle;whiteSpace=wrap;rounded=0;" vertex="1" parent="1">
          <mxGeometry x="1000" y="270" width="110" height="50" as="geometry" />
        </mxCell>
        <mxCell id="TSHtxzfvW_aCyL66SPKD-47" style="edgeStyle=orthogonalEdgeStyle;rounded=0;orthogonalLoop=1;jettySize=auto;html=1;exitX=0;exitY=0.75;exitDx=0;exitDy=0;entryX=0;entryY=0.5;entryDx=0;entryDy=0;" edge="1" parent="1" source="TSHtxzfvW_aCyL66SPKD-18" target="OI6TuoTH3LYQ655Bs1VF-25">
          <mxGeometry relative="1" as="geometry">
            <mxPoint x="20" y="650" as="targetPoint" />
            <Array as="points">
              <mxPoint x="631" y="758" />
              <mxPoint x="631" y="1250" />
              <mxPoint x="20" y="1250" />
              <mxPoint x="20" y="660" />
            </Array>
          </mxGeometry>
        </mxCell>
        <mxCell id="TSHtxzfvW_aCyL66SPKD-18" value="" style="whiteSpace=wrap;html=1;aspect=fixed;" vertex="1" parent="1">
          <mxGeometry x="1015" y="570" width="250" height="250" as="geometry" />
        </mxCell>
        <mxCell id="TSHtxzfvW_aCyL66SPKD-19" value="Order&amp;nbsp;" style="text;html=1;strokeColor=none;fillColor=none;align=center;verticalAlign=middle;whiteSpace=wrap;rounded=0;" vertex="1" parent="1">
          <mxGeometry x="1015" y="540" width="60" height="30" as="geometry" />
        </mxCell>
        <mxCell id="TSHtxzfvW_aCyL66SPKD-20" value="Order_id" style="text;html=1;strokeColor=none;fillColor=none;align=center;verticalAlign=middle;whiteSpace=wrap;rounded=0;" vertex="1" parent="1">
          <mxGeometry x="1015" y="580" width="205" height="30" as="geometry" />
        </mxCell>
        <mxCell id="TSHtxzfvW_aCyL66SPKD-21" value="Payment&amp;nbsp;" style="text;html=1;strokeColor=none;fillColor=none;align=center;verticalAlign=middle;whiteSpace=wrap;rounded=0;" vertex="1" parent="1">
          <mxGeometry x="1015" y="610" width="205" height="30" as="geometry" />
        </mxCell>
        <mxCell id="TSHtxzfvW_aCyL66SPKD-22" value="order status" style="text;html=1;strokeColor=none;fillColor=none;align=center;verticalAlign=middle;whiteSpace=wrap;rounded=0;" vertex="1" parent="1">
          <mxGeometry x="1015" y="645" width="205" height="30" as="geometry" />
        </mxCell>
        <mxCell id="TSHtxzfvW_aCyL66SPKD-23" value="user address" style="text;html=1;strokeColor=none;fillColor=none;align=center;verticalAlign=middle;whiteSpace=wrap;rounded=0;" vertex="1" parent="1">
          <mxGeometry x="1020" y="675" width="205" height="30" as="geometry" />
        </mxCell>
        <mxCell id="TSHtxzfvW_aCyL66SPKD-24" value="Map&amp;lt;product id, count&amp;gt;" style="text;html=1;strokeColor=none;fillColor=none;align=center;verticalAlign=middle;whiteSpace=wrap;rounded=0;" vertex="1" parent="1">
          <mxGeometry x="1020" y="710" width="205" height="30" as="geometry" />
        </mxCell>
        <mxCell id="TSHtxzfvW_aCyL66SPKD-25" value="" style="endArrow=classic;html=1;rounded=0;entryX=1;entryY=0.75;entryDx=0;entryDy=0;exitX=0;exitY=0;exitDx=0;exitDy=0;" edge="1" parent="1" source="TSHtxzfvW_aCyL66SPKD-45" target="TSHtxzfvW_aCyL66SPKD-1">
          <mxGeometry width="50" height="50" relative="1" as="geometry">
            <mxPoint x="980" y="640" as="sourcePoint" />
            <mxPoint x="1015" y="595" as="targetPoint" />
          </mxGeometry>
        </mxCell>
        <mxCell id="TSHtxzfvW_aCyL66SPKD-26" value="ware house address" style="text;html=1;strokeColor=none;fillColor=none;align=center;verticalAlign=middle;whiteSpace=wrap;rounded=0;" vertex="1" parent="1">
          <mxGeometry x="1025" y="740" width="185" height="20" as="geometry" />
        </mxCell>
        <mxCell id="TSHtxzfvW_aCyL66SPKD-28" value="Invoice invoice" style="text;html=1;strokeColor=none;fillColor=none;align=center;verticalAlign=middle;whiteSpace=wrap;rounded=0;" vertex="1" parent="1">
          <mxGeometry x="1025" y="770" width="185" height="20" as="geometry" />
        </mxCell>
        <mxCell id="TSHtxzfvW_aCyL66SPKD-29" value="" style="whiteSpace=wrap;html=1;aspect=fixed;" vertex="1" parent="1">
          <mxGeometry x="1350" y="570" width="120" height="120" as="geometry" />
        </mxCell>
        <mxCell id="TSHtxzfvW_aCyL66SPKD-30" value="Payment" style="text;html=1;strokeColor=none;fillColor=none;align=center;verticalAlign=middle;whiteSpace=wrap;rounded=0;" vertex="1" parent="1">
          <mxGeometry x="1340" y="535" width="60" height="30" as="geometry" />
        </mxCell>
        <mxCell id="TSHtxzfvW_aCyL66SPKD-31" value="Paymnet_id" style="text;html=1;strokeColor=none;fillColor=none;align=center;verticalAlign=middle;whiteSpace=wrap;rounded=0;" vertex="1" parent="1">
          <mxGeometry x="1360" y="580" width="60" height="30" as="geometry" />
        </mxCell>
        <mxCell id="TSHtxzfvW_aCyL66SPKD-32" value="Paymnet Mode" style="text;html=1;strokeColor=none;fillColor=none;align=center;verticalAlign=middle;whiteSpace=wrap;rounded=0;" vertex="1" parent="1">
          <mxGeometry x="1360" y="610" width="90" height="30" as="geometry" />
        </mxCell>
        <mxCell id="TSHtxzfvW_aCyL66SPKD-33" value="Paymnet Type" style="text;html=1;strokeColor=none;fillColor=none;align=center;verticalAlign=middle;whiteSpace=wrap;rounded=0;" vertex="1" parent="1">
          <mxGeometry x="1360" y="640" width="90" height="30" as="geometry" />
        </mxCell>
        <mxCell id="TSHtxzfvW_aCyL66SPKD-34" value="" style="endArrow=classic;html=1;rounded=0;entryX=-0.022;entryY=0.322;entryDx=0;entryDy=0;entryPerimeter=0;exitX=1.005;exitY=0.178;exitDx=0;exitDy=0;exitPerimeter=0;" edge="1" parent="1" source="TSHtxzfvW_aCyL66SPKD-18" target="TSHtxzfvW_aCyL66SPKD-29">
          <mxGeometry width="50" height="50" relative="1" as="geometry">
            <mxPoint x="1210" y="700" as="sourcePoint" />
            <mxPoint x="1260" y="650" as="targetPoint" />
          </mxGeometry>
        </mxCell>
        <mxCell id="TSHtxzfvW_aCyL66SPKD-35" value="" style="whiteSpace=wrap;html=1;aspect=fixed;" vertex="1" parent="1">
          <mxGeometry x="1350" y="720" width="110" height="110" as="geometry" />
        </mxCell>
        <mxCell id="TSHtxzfvW_aCyL66SPKD-36" value="Inovoice" style="text;html=1;strokeColor=none;fillColor=none;align=center;verticalAlign=middle;whiteSpace=wrap;rounded=0;" vertex="1" parent="1">
          <mxGeometry x="1330" y="690" width="80" height="30" as="geometry" />
        </mxCell>
        <mxCell id="TSHtxzfvW_aCyL66SPKD-37" value="Inovice id" style="text;html=1;strokeColor=none;fillColor=none;align=center;verticalAlign=middle;whiteSpace=wrap;rounded=0;" vertex="1" parent="1">
          <mxGeometry x="1350" y="720" width="60" height="30" as="geometry" />
        </mxCell>
        <mxCell id="TSHtxzfvW_aCyL66SPKD-38" value="Total Amount" style="text;html=1;strokeColor=none;fillColor=none;align=center;verticalAlign=middle;whiteSpace=wrap;rounded=0;" vertex="1" parent="1">
          <mxGeometry x="1360" y="750" width="90" height="30" as="geometry" />
        </mxCell>
        <mxCell id="TSHtxzfvW_aCyL66SPKD-39" value="Int Tax;" style="text;html=1;strokeColor=none;fillColor=none;align=center;verticalAlign=middle;whiteSpace=wrap;rounded=0;" vertex="1" parent="1">
          <mxGeometry x="1360" y="780" width="90" height="30" as="geometry" />
        </mxCell>
        <mxCell id="TSHtxzfvW_aCyL66SPKD-40" value="" style="endArrow=classic;html=1;rounded=0;exitX=1;exitY=0.856;exitDx=0;exitDy=0;exitPerimeter=0;entryX=0;entryY=0.5;entryDx=0;entryDy=0;" edge="1" parent="1" source="TSHtxzfvW_aCyL66SPKD-18" target="TSHtxzfvW_aCyL66SPKD-37">
          <mxGeometry width="50" height="50" relative="1" as="geometry">
            <mxPoint x="1210" y="700" as="sourcePoint" />
            <mxPoint x="1340" y="740" as="targetPoint" />
          </mxGeometry>
        </mxCell>
        <mxCell id="TSHtxzfvW_aCyL66SPKD-41" value="" style="whiteSpace=wrap;html=1;aspect=fixed;" vertex="1" parent="1">
          <mxGeometry x="1010" y="875" width="145" height="145" as="geometry" />
        </mxCell>
        <mxCell id="TSHtxzfvW_aCyL66SPKD-42" value="Order Controller" style="text;html=1;strokeColor=none;fillColor=none;align=center;verticalAlign=middle;whiteSpace=wrap;rounded=0;" vertex="1" parent="1">
          <mxGeometry x="1000" y="845" width="60" height="30" as="geometry" />
        </mxCell>
        <mxCell id="TSHtxzfvW_aCyL66SPKD-43" value="List&amp;lt;Order&amp;gt;" style="text;html=1;strokeColor=none;fillColor=none;align=center;verticalAlign=middle;whiteSpace=wrap;rounded=0;" vertex="1" parent="1">
          <mxGeometry x="1000" y="890" width="170" height="30" as="geometry" />
        </mxCell>
        <mxCell id="TSHtxzfvW_aCyL66SPKD-44" value="" style="endArrow=classic;html=1;rounded=0;exitX=0.5;exitY=0;exitDx=0;exitDy=0;entryX=0.25;entryY=1;entryDx=0;entryDy=0;" edge="1" parent="1" source="TSHtxzfvW_aCyL66SPKD-41" target="TSHtxzfvW_aCyL66SPKD-18">
          <mxGeometry width="50" height="50" relative="1" as="geometry">
            <mxPoint x="1210" y="810" as="sourcePoint" />
            <mxPoint x="1260" y="760" as="targetPoint" />
          </mxGeometry>
        </mxCell>
        <mxCell id="TSHtxzfvW_aCyL66SPKD-45" value="User user;" style="text;html=1;strokeColor=none;fillColor=none;align=center;verticalAlign=middle;whiteSpace=wrap;rounded=0;" vertex="1" parent="1">
          <mxGeometry x="1015" y="590" width="205" height="30" as="geometry" />
        </mxCell>
        <mxCell id="TSHtxzfvW_aCyL66SPKD-54" style="edgeStyle=orthogonalEdgeStyle;rounded=0;orthogonalLoop=1;jettySize=auto;html=1;exitX=0;exitY=0.75;exitDx=0;exitDy=0;entryX=0.75;entryY=0;entryDx=0;entryDy=0;" edge="1" parent="1" source="TSHtxzfvW_aCyL66SPKD-49" target="OI6TuoTH3LYQ655Bs1VF-39">
          <mxGeometry relative="1" as="geometry">
            <Array as="points">
              <mxPoint x="730" y="230" />
              <mxPoint x="730" y="340" />
              <mxPoint x="495" y="340" />
            </Array>
          </mxGeometry>
        </mxCell>
        <mxCell id="TSHtxzfvW_aCyL66SPKD-49" value="" style="whiteSpace=wrap;html=1;aspect=fixed;" vertex="1" parent="1">
          <mxGeometry x="790" y="65" width="220" height="220" as="geometry" />
        </mxCell>
        <mxCell id="TSHtxzfvW_aCyL66SPKD-50" value="Application" style="text;html=1;strokeColor=none;fillColor=none;align=center;verticalAlign=middle;whiteSpace=wrap;rounded=0;" vertex="1" parent="1">
          <mxGeometry x="780" y="20" width="60" height="30" as="geometry" />
        </mxCell>
        <mxCell id="TSHtxzfvW_aCyL66SPKD-51" value="User" style="text;html=1;strokeColor=none;fillColor=none;align=center;verticalAlign=middle;whiteSpace=wrap;rounded=0;" vertex="1" parent="1">
          <mxGeometry x="800" y="80" width="180" height="30" as="geometry" />
        </mxCell>
        <mxCell id="TSHtxzfvW_aCyL66SPKD-52" value="WareHouse Controller" style="text;html=1;strokeColor=none;fillColor=none;align=center;verticalAlign=middle;whiteSpace=wrap;rounded=0;" vertex="1" parent="1">
          <mxGeometry x="800" y="110" width="180" height="50" as="geometry" />
        </mxCell>
        <mxCell id="TSHtxzfvW_aCyL66SPKD-53" value="" style="endArrow=classic;html=1;rounded=0;entryX=1;entryY=1;entryDx=0;entryDy=0;" edge="1" parent="1" target="TSHtxzfvW_aCyL66SPKD-10">
          <mxGeometry width="50" height="50" relative="1" as="geometry">
            <mxPoint x="870" y="290" as="sourcePoint" />
            <mxPoint x="950" y="270" as="targetPoint" />
          </mxGeometry>
        </mxCell>
      </root>
    </mxGraphModel>
  </diagram>
</mxfile>
